<svg width="390" height="196" viewBox="0 0 390 196" fill="none" xmlns="http://www.w3.org/2000/svg">
<path d="M50.5794 57.1031C56.5975 52.3765 68.8307 44.1184 86.3806 41.1021C111.814 36.7316 131.678 46.2512 138.176 49.722C140.494 46.1875 142.809 42.6564 145.128 39.1219C146.495 48.9335 147.859 58.7423 149.227 68.5539C140.326 67.5462 131.425 66.5325 122.524 65.5248C125.682 62.5684 128.843 59.6147 132 56.6583C126.187 53.7155 112.119 47.5768 93.5314 49.0968C73.5982 50.7289 60.0763 60.2185 54.994 64.1954C53.5255 61.832 52.0511 59.4692 50.5827 57.1058L50.5794 57.1031Z" fill="white" stroke="white" stroke-width="6" stroke-linecap="round" stroke-linejoin="round"/>
<path d="M150.706 142.264C144.483 146.718 131.889 154.423 114.223 156.65C88.6163 159.884 69.1956 149.487 62.856 145.731C60.3849 149.156 57.9115 152.585 55.4368 156.007C54.5103 146.147 53.5837 136.287 52.6572 126.427C61.5047 127.834 70.3544 129.238 79.2019 130.645C75.9121 133.457 72.6247 136.265 69.3385 139.078C75.0153 142.277 88.7958 149.035 107.435 148.346C127.423 147.606 141.361 138.729 146.614 134.984C147.977 137.409 149.344 139.836 150.708 142.261L150.706 142.264Z" fill="white" stroke="white" stroke-width="5" stroke-linecap="round" stroke-linejoin="round"/>
<path d="M24.31 82.54C20.9733 82.54 18.4167 83.5583 16.64 85.595C14.8633 87.6317 13.975 90.5133 13.975 94.24C13.975 98.01 14.95 100.913 16.9 102.95C18.8933 104.987 21.5583 106.005 24.895 106.005C26.6717 106.005 28.1667 105.767 29.38 105.29C30.6367 104.813 31.8283 104.272 32.955 103.665C33.6917 104.272 34.255 105.008 34.645 105.875C35.0783 106.698 35.295 107.673 35.295 108.8C35.295 110.577 34.2983 112.093 32.305 113.35C30.355 114.563 27.365 115.17 23.335 115.17C20.4317 115.17 17.7017 114.758 15.145 113.935C12.5883 113.112 10.3567 111.855 8.45 110.165C6.54333 108.432 5.02667 106.265 3.9 103.665C2.81667 101.022 2.275 97.88 2.275 94.24C2.275 90.86 2.795 87.8917 3.835 85.335C4.91833 82.735 6.37 80.5467 8.19 78.77C10.0533 76.9933 12.22 75.65 14.69 74.74C17.16 73.83 19.8033 73.375 22.62 73.375C26.6067 73.375 29.6833 74.025 31.85 75.325C34.06 76.625 35.165 78.2933 35.165 80.33C35.165 81.4567 34.8833 82.4317 34.32 83.255C33.7567 84.0783 33.1067 84.7283 32.37 85.205C31.2433 84.4683 30.03 83.84 28.73 83.32C27.4733 82.8 26 82.54 24.31 82.54ZM99.5719 93.98C99.5719 92.6367 99.1819 91.6617 98.4019 91.055C97.6652 90.405 96.6469 90.08 95.3469 90.08C94.4802 90.08 93.6135 90.1883 92.7469 90.405C91.9235 90.6217 91.2085 90.9467 90.6019 91.38L90.6019 113.935C90.1685 114.065 89.4752 114.195 88.5219 114.325C87.6119 114.455 86.6585 114.52 85.6619 114.52C84.7085 114.52 83.8419 114.455 83.0619 114.325C82.3252 114.195 81.6969 113.935 81.1769 113.545C80.6569 113.155 80.2452 112.635 79.9419 111.985C79.6819 111.292 79.5519 110.403 79.5519 109.32L79.5519 89.82C79.5519 88.65 79.7902 87.6967 80.2669 86.96C80.7869 86.2233 81.4802 85.5517 82.3469 84.945C83.8202 83.905 85.6619 83.06 87.8719 82.41C90.1252 81.76 92.6169 81.435 95.3469 81.435C100.244 81.435 104.014 82.5183 106.657 84.685C109.3 86.8083 110.622 89.7767 110.622 93.59L110.622 113.935C110.189 114.065 109.495 114.195 108.542 114.325C107.632 114.455 106.679 114.52 105.682 114.52C104.729 114.52 103.862 114.455 103.082 114.325C102.345 114.195 101.717 113.935 101.197 113.545C100.677 113.155 100.265 112.635 99.9619 111.985C99.7019 111.292 99.5719 110.403 99.5719 109.32L99.5719 93.98ZM137.747 113.155C137.141 113.632 136.252 114.022 135.082 114.325C133.912 114.628 132.591 114.78 131.117 114.78C129.427 114.78 127.954 114.563 126.697 114.13C125.484 113.697 124.639 113.003 124.162 112.05C123.772 111.313 123.296 110.295 122.732 108.995C122.212 107.652 121.649 106.178 121.042 104.575C120.436 102.928 119.807 101.173 119.157 99.31C118.507 97.4467 117.879 95.605 117.272 93.785C116.709 91.965 116.189 90.21 115.712 88.52C115.236 86.83 114.846 85.335 114.542 84.035C115.149 83.4283 115.951 82.9083 116.947 82.475C117.987 81.9983 119.114 81.76 120.327 81.76C121.844 81.76 123.079 82.085 124.032 82.735C125.029 83.3417 125.766 84.5117 126.242 86.245L128.777 96.19C129.254 98.14 129.709 99.9167 130.142 101.52C130.576 103.08 130.901 104.293 131.117 105.16L131.442 105.16C132.266 101.953 133.132 98.4 134.042 94.5C134.952 90.6 135.776 86.765 136.512 82.995C137.249 82.605 138.072 82.3017 138.982 82.085C139.936 81.8683 140.846 81.76 141.712 81.76C143.229 81.76 144.507 82.085 145.547 82.735C146.587 83.385 147.107 84.5117 147.107 86.115C147.107 86.8083 146.934 87.8267 146.587 89.17C146.284 90.47 145.872 91.965 145.352 93.655C144.876 95.3017 144.291 97.0567 143.597 98.92C142.947 100.783 142.276 102.603 141.582 104.38C140.889 106.157 140.196 107.825 139.502 109.385C138.852 110.902 138.267 112.158 137.747 113.155ZM168.43 115.04C165.873 115.04 163.49 114.693 161.28 114C159.113 113.263 157.206 112.18 155.56 110.75C153.956 109.32 152.678 107.522 151.725 105.355C150.815 103.188 150.36 100.653 150.36 97.75C150.36 94.89 150.815 92.4417 151.725 90.405C152.678 88.325 153.913 86.635 155.43 85.335C156.946 83.9917 158.68 83.0167 160.63 82.41C162.58 81.76 164.573 81.435 166.61 81.435C168.906 81.435 170.986 81.7817 172.85 82.475C174.756 83.1683 176.381 84.1217 177.725 85.335C179.111 86.5483 180.173 88 180.91 89.69C181.69 91.38 182.08 93.2217 182.08 95.215C182.08 96.6883 181.668 97.815 180.845 98.595C180.021 99.375 178.873 99.8733 177.4 100.09L161.345 102.495C161.821 103.925 162.796 105.008 164.27 105.745C165.743 106.438 167.433 106.785 169.34 106.785C171.116 106.785 172.785 106.568 174.345 106.135C175.948 105.658 177.248 105.117 178.245 104.51C178.938 104.943 179.523 105.55 180 106.33C180.476 107.11 180.715 107.933 180.715 108.8C180.715 110.75 179.805 112.202 177.985 113.155C176.598 113.892 175.038 114.39 173.305 114.65C171.571 114.91 169.946 115.04 168.43 115.04ZM166.61 89.495C165.57 89.495 164.66 89.6683 163.88 90.015C163.143 90.3617 162.536 90.8167 162.06 91.38C161.583 91.9 161.215 92.5067 160.955 93.2C160.738 93.85 160.608 94.5217 160.565 95.215L171.68 93.395C171.55 92.5283 171.073 91.6617 170.25 90.795C169.426 89.9283 168.213 89.495 166.61 89.495ZM198.449 113.935C198.015 114.065 197.322 114.195 196.369 114.325C195.459 114.455 194.505 114.52 193.509 114.52C192.555 114.52 191.689 114.455 190.909 114.325C190.172 114.195 189.544 113.935 189.024 113.545C188.504 113.155 188.092 112.635 187.789 111.985C187.529 111.292 187.399 110.403 187.399 109.32L187.399 89.82C187.399 88.8233 187.572 87.9783 187.919 87.285C188.309 86.5483 188.85 85.8983 189.544 85.335C190.237 84.7717 191.082 84.2733 192.079 83.84C193.119 83.3633 194.224 82.9517 195.394 82.605C196.564 82.2583 197.777 81.9983 199.034 81.825C200.29 81.6083 201.547 81.5 202.804 81.5C204.884 81.5 206.53 81.9117 207.744 82.735C208.957 83.515 209.564 84.815 209.564 86.635C209.564 87.2417 209.477 87.8483 209.304 88.455C209.13 89.0183 208.914 89.5383 208.654 90.015C207.744 90.015 206.812 90.0583 205.859 90.145C204.905 90.2317 203.974 90.3617 203.064 90.535C202.154 90.7083 201.287 90.9033 200.464 91.12C199.684 91.2933 199.012 91.51 198.449 91.77L198.449 113.935ZM225.172 103.145C225.172 104.272 225.519 105.073 226.212 105.55C226.949 106.027 227.967 106.265 229.267 106.265C229.917 106.265 230.589 106.222 231.282 106.135C231.976 106.005 232.582 105.853 233.102 105.68C233.492 106.157 233.817 106.698 234.077 107.305C234.381 107.868 234.532 108.562 234.532 109.385C234.532 111.032 233.904 112.375 232.647 113.415C231.434 114.455 229.267 114.975 226.147 114.975C222.334 114.975 219.387 114.108 217.307 112.375C215.271 110.642 214.252 107.825 214.252 103.925L214.252 76.105C214.729 75.975 215.401 75.845 216.267 75.715C217.177 75.5417 218.131 75.455 219.127 75.455C221.034 75.455 222.507 75.8017 223.547 76.495C224.631 77.145 225.172 78.5533 225.172 80.72L225.172 84.88L233.687 84.88C233.947 85.3567 234.186 85.9633 234.402 86.7C234.662 87.3933 234.792 88.1733 234.792 89.04C234.792 90.5567 234.446 91.6617 233.752 92.355C233.102 93.005 232.214 93.33 231.087 93.33L225.172 93.33L225.172 103.145ZM256.472 115.04C253.915 115.04 251.532 114.693 249.322 114C247.155 113.263 245.248 112.18 243.602 110.75C241.998 109.32 240.72 107.522 239.767 105.355C238.857 103.188 238.402 100.653 238.402 97.75C238.402 94.89 238.857 92.4417 239.767 90.405C240.72 88.325 241.955 86.635 243.472 85.335C244.988 83.9917 246.722 83.0167 248.672 82.41C250.622 81.76 252.615 81.435 254.652 81.435C256.948 81.435 259.028 81.7817 260.892 82.475C262.798 83.1683 264.423 84.1217 265.767 85.335C267.153 86.5483 268.215 88 268.952 89.69C269.732 91.38 270.122 93.2217 270.122 95.215C270.122 96.6883 269.71 97.815 268.887 98.595C268.063 99.375 266.915 99.8733 265.442 100.09L249.387 102.495C249.863 103.925 250.838 105.008 252.312 105.745C253.785 106.438 255.475 106.785 257.382 106.785C259.158 106.785 260.827 106.568 262.387 106.135C263.99 105.658 265.29 105.117 266.287 104.51C266.98 104.943 267.565 105.55 268.042 106.33C268.518 107.11 268.757 107.933 268.757 108.8C268.757 110.75 267.847 112.202 266.027 113.155C264.64 113.892 263.08 114.39 261.347 114.65C259.613 114.91 257.988 115.04 256.472 115.04ZM254.652 89.495C253.612 89.495 252.702 89.6683 251.922 90.015C251.185 90.3617 250.578 90.8167 250.102 91.38C249.625 91.9 249.257 92.5067 248.997 93.2C248.78 93.85 248.65 94.5217 248.607 95.215L259.722 93.395C259.592 92.5283 259.115 91.6617 258.292 90.795C257.468 89.9283 256.255 89.495 254.652 89.495ZM286.491 113.935C286.057 114.065 285.364 114.195 284.411 114.325C283.501 114.455 282.547 114.52 281.551 114.52C280.597 114.52 279.731 114.455 278.951 114.325C278.214 114.195 277.586 113.935 277.066 113.545C276.546 113.155 276.134 112.635 275.831 111.985C275.571 111.292 275.441 110.403 275.441 109.32L275.441 89.82C275.441 88.8233 275.614 87.9783 275.961 87.285C276.351 86.5483 276.892 85.8983 277.586 85.335C278.279 84.7717 279.124 84.2733 280.121 83.84C281.161 83.3633 282.266 82.9517 283.436 82.605C284.606 82.2583 285.819 81.9983 287.076 81.825C288.332 81.6083 289.589 81.5 290.846 81.5C292.926 81.5 294.572 81.9117 295.786 82.735C296.999 83.515 297.606 84.815 297.606 86.635C297.606 87.2417 297.519 87.8483 297.346 88.455C297.172 89.0183 296.956 89.5383 296.696 90.015C295.786 90.015 294.854 90.0583 293.901 90.145C292.947 90.2317 292.016 90.3617 291.106 90.535C290.196 90.7083 289.329 90.9033 288.506 91.12C287.726 91.2933 287.054 91.51 286.491 91.77L286.491 113.935Z" fill="white"/>
<path d="M57.5 81.1562C54.0697 81.1562 50.7165 82.1734 47.8643 84.0792C45.0122 85.985 42.7892 88.6937 41.4765 91.8628C40.1638 95.032 39.8203 98.5192 40.4895 101.884C41.1587 105.248 42.8106 108.338 45.2361 110.764C47.6617 113.189 50.7521 114.841 54.1164 115.51C57.4808 116.18 60.968 115.836 64.1372 114.524C67.3063 113.211 70.0151 110.988 71.9208 108.136C73.8266 105.284 74.8438 101.93 74.8438 98.5C74.8438 93.9002 73.0165 89.4887 69.7639 86.2361C66.5113 82.9835 62.0999 81.1562 57.5 81.1562ZM59.1303 107.01V107.935C59.1303 108.395 58.9476 108.836 58.6223 109.161C58.2971 109.487 57.8559 109.669 57.3959 109.669C56.936 109.669 56.4948 109.487 56.1696 109.161C55.8443 108.836 55.6616 108.395 55.6616 107.935V106.998C54.4678 106.841 53.3009 106.522 52.1928 106.05C51.7519 105.88 51.3837 105.562 51.1508 105.15C50.9178 104.739 50.8344 104.26 50.9148 103.794C50.9951 103.328 51.2343 102.904 51.5916 102.595C51.949 102.285 52.4024 102.109 52.875 102.096C54.3284 102.598 55.8398 102.913 57.3728 103.032C59.8588 103.032 59.8588 102.165 59.8588 101.795C59.8588 101.171 58.1359 100.905 57.1416 100.639C54.7019 100.026 51.0134 99.0666 51.0134 95.2856C51.044 94.0101 51.5253 92.7866 52.3719 91.8321C53.2185 90.8775 54.3757 90.2536 55.6384 90.0709V89.065C55.6384 88.605 55.8212 88.1639 56.1464 87.8386C56.4717 87.5134 56.9128 87.3306 57.3728 87.3306C57.8328 87.3306 58.274 87.5134 58.5992 87.8386C58.9245 88.1639 59.1072 88.605 59.1072 89.065V89.9669C60.1373 90.0626 61.1513 90.288 62.125 90.6375C62.5682 90.8014 62.9405 91.1144 63.1781 91.5228C63.4157 91.9313 63.5038 92.4097 63.4272 92.8759C63.3506 93.3422 63.1142 93.7673 62.7585 94.0783C62.4027 94.3893 61.9498 94.5668 61.4775 94.5803C60.2772 94.2225 59.0395 94.0052 57.7891 93.9328C56.6328 93.9328 55.2338 94.2566 55.2338 95.1469C55.2338 95.7481 56.0663 96.0487 58.0666 96.5228C60.4484 97.1009 64.0559 97.9566 64.0559 101.911C64.0906 104.57 62.125 106.513 59.1303 107.01Z" fill="white"/>
</svg>
