<svg width="296" height="124" viewBox="0 0 296 124" fill="none" xmlns="http://www.w3.org/2000/svg">
<path d="M48.5794 21.1031C54.5975 16.3765 66.8307 8.1184 84.3806 5.10213C109.814 0.731606 129.678 10.2512 136.176 13.722C138.494 10.1875 140.809 6.65638 143.128 3.12193C144.495 12.9335 145.859 22.7423 147.227 32.5539C138.326 31.5462 129.425 30.5325 120.524 29.5248C123.682 26.5684 126.843 23.6147 130 20.6583C124.187 17.7155 110.119 11.5768 91.5314 13.0968C71.5982 14.7289 58.0763 24.2185 52.994 28.1954C51.5255 25.832 50.0511 23.4692 48.5827 21.1058L48.5794 21.1031Z" fill="#D93A3A" stroke="#FF0000" stroke-width="6" stroke-linecap="round" stroke-linejoin="round"/>
<path d="M148.706 106.264C142.483 110.718 129.889 118.423 112.223 120.65C86.6163 123.884 67.1956 113.487 60.856 109.731C58.3849 113.156 55.9115 116.585 53.4368 120.007C52.5103 110.147 51.5837 100.287 50.6572 90.4267C59.5047 91.834 68.3544 93.2377 77.2019 94.6449C73.9121 97.4565 70.6247 100.265 67.3385 103.078C73.0153 106.277 86.7958 113.035 105.435 112.346C125.423 111.606 139.361 102.729 144.614 98.9838C145.977 101.409 147.344 103.836 148.708 106.261L148.706 106.264Z" fill="#D93A3A" stroke="#FF0000" stroke-width="5" stroke-linecap="round" stroke-linejoin="round"/>
<path d="M22.31 46.54C18.9733 46.54 16.4167 47.5583 14.64 49.595C12.8633 51.6317 11.975 54.5133 11.975 58.24C11.975 62.01 12.95 64.9133 14.9 66.95C16.8933 68.9867 19.5583 70.005 22.895 70.005C24.6717 70.005 26.1667 69.7667 27.38 69.29C28.6367 68.8133 29.8283 68.2717 30.955 67.665C31.6917 68.2717 32.255 69.0083 32.645 69.875C33.0783 70.6983 33.295 71.6733 33.295 72.8C33.295 74.5767 32.2983 76.0933 30.305 77.35C28.355 78.5633 25.365 79.17 21.335 79.17C18.4317 79.17 15.7017 78.7583 13.145 77.935C10.5883 77.1117 8.35667 75.855 6.45 74.165C4.54333 72.4317 3.02667 70.265 1.9 67.665C0.816667 65.0217 0.275 61.88 0.275 58.24C0.275 54.86 0.795 51.8917 1.835 49.335C2.91833 46.735 4.37 44.5467 6.19 42.77C8.05333 40.9933 10.22 39.65 12.69 38.74C15.16 37.83 17.8033 37.375 20.62 37.375C24.6067 37.375 27.6833 38.025 29.85 39.325C32.06 40.625 33.165 42.2933 33.165 44.33C33.165 45.4567 32.8833 46.4317 32.32 47.255C31.7567 48.0783 31.1067 48.7283 30.37 49.205C29.2433 48.4683 28.03 47.84 26.73 47.32C25.4733 46.8 24 46.54 22.31 46.54ZM97.5719 57.98C97.5719 56.6367 97.1819 55.6617 96.4019 55.055C95.6652 54.405 94.6469 54.08 93.3469 54.08C92.4802 54.08 91.6135 54.1883 90.7469 54.405C89.9235 54.6217 89.2085 54.9467 88.6019 55.38L88.6019 77.935C88.1685 78.065 87.4752 78.195 86.5219 78.325C85.6119 78.455 84.6585 78.52 83.6619 78.52C82.7085 78.52 81.8419 78.455 81.0619 78.325C80.3252 78.195 79.6969 77.935 79.1769 77.545C78.6569 77.155 78.2452 76.635 77.9419 75.985C77.6819 75.2917 77.5519 74.4033 77.5519 73.32L77.5519 53.82C77.5519 52.65 77.7902 51.6967 78.2669 50.96C78.7869 50.2233 79.4802 49.5517 80.3469 48.945C81.8202 47.905 83.6619 47.06 85.8719 46.41C88.1252 45.76 90.6169 45.435 93.3469 45.435C98.2435 45.435 102.014 46.5183 104.657 48.685C107.3 50.8083 108.622 53.7767 108.622 57.59L108.622 77.935C108.189 78.065 107.495 78.195 106.542 78.325C105.632 78.455 104.679 78.52 103.682 78.52C102.729 78.52 101.862 78.455 101.082 78.325C100.345 78.195 99.7169 77.935 99.1969 77.545C98.6769 77.155 98.2652 76.635 97.9619 75.985C97.7019 75.2917 97.5719 74.4033 97.5719 73.32L97.5719 57.98ZM135.747 77.155C135.141 77.6317 134.252 78.0217 133.082 78.325C131.912 78.6283 130.591 78.78 129.117 78.78C127.427 78.78 125.954 78.5633 124.697 78.13C123.484 77.6967 122.639 77.0033 122.162 76.05C121.772 75.3133 121.296 74.295 120.732 72.995C120.212 71.6517 119.649 70.1783 119.042 68.575C118.436 66.9283 117.807 65.1733 117.157 63.31C116.507 61.4467 115.879 59.605 115.272 57.785C114.709 55.965 114.189 54.21 113.712 52.52C113.236 50.83 112.846 49.335 112.542 48.035C113.149 47.4283 113.951 46.9083 114.947 46.475C115.987 45.9983 117.114 45.76 118.327 45.76C119.844 45.76 121.079 46.085 122.032 46.735C123.029 47.3417 123.766 48.5117 124.242 50.245L126.777 60.19C127.254 62.14 127.709 63.9167 128.142 65.52C128.576 67.08 128.901 68.2933 129.117 69.16L129.442 69.16C130.266 65.9533 131.132 62.4 132.042 58.5C132.952 54.6 133.776 50.765 134.512 46.995C135.249 46.605 136.072 46.3017 136.982 46.085C137.936 45.8683 138.846 45.76 139.712 45.76C141.229 45.76 142.507 46.085 143.547 46.735C144.587 47.385 145.107 48.5117 145.107 50.115C145.107 50.8083 144.934 51.8267 144.587 53.17C144.284 54.47 143.872 55.965 143.352 57.655C142.876 59.3017 142.291 61.0567 141.597 62.92C140.947 64.7833 140.276 66.6033 139.582 68.38C138.889 70.1567 138.196 71.825 137.502 73.385C136.852 74.9017 136.267 76.1583 135.747 77.155ZM166.43 79.04C163.873 79.04 161.49 78.6933 159.28 78C157.113 77.2633 155.206 76.18 153.56 74.75C151.956 73.32 150.678 71.5217 149.725 69.355C148.815 67.1883 148.36 64.6533 148.36 61.75C148.36 58.89 148.815 56.4417 149.725 54.405C150.678 52.325 151.913 50.635 153.43 49.335C154.946 47.9917 156.68 47.0167 158.63 46.41C160.58 45.76 162.573 45.435 164.61 45.435C166.906 45.435 168.986 45.7817 170.85 46.475C172.756 47.1683 174.381 48.1217 175.725 49.335C177.111 50.5483 178.173 52 178.91 53.69C179.69 55.38 180.08 57.2217 180.08 59.215C180.08 60.6883 179.668 61.815 178.845 62.595C178.021 63.375 176.873 63.8733 175.4 64.09L159.345 66.495C159.821 67.925 160.796 69.0083 162.27 69.745C163.743 70.4383 165.433 70.785 167.34 70.785C169.116 70.785 170.785 70.5683 172.345 70.135C173.948 69.6583 175.248 69.1167 176.245 68.51C176.938 68.9433 177.523 69.55 178 70.33C178.476 71.11 178.715 71.9333 178.715 72.8C178.715 74.75 177.805 76.2017 175.985 77.155C174.598 77.8917 173.038 78.39 171.305 78.65C169.571 78.91 167.946 79.04 166.43 79.04ZM164.61 53.495C163.57 53.495 162.66 53.6683 161.88 54.015C161.143 54.3617 160.536 54.8167 160.06 55.38C159.583 55.9 159.215 56.5067 158.955 57.2C158.738 57.85 158.608 58.5217 158.565 59.215L169.68 57.395C169.55 56.5283 169.073 55.6617 168.25 54.795C167.426 53.9283 166.213 53.495 164.61 53.495ZM196.449 77.935C196.015 78.065 195.322 78.195 194.369 78.325C193.459 78.455 192.505 78.52 191.509 78.52C190.555 78.52 189.689 78.455 188.909 78.325C188.172 78.195 187.544 77.935 187.024 77.545C186.504 77.155 186.092 76.635 185.789 75.985C185.529 75.2917 185.399 74.4033 185.399 73.32L185.399 53.82C185.399 52.8233 185.572 51.9783 185.919 51.285C186.309 50.5483 186.85 49.8983 187.544 49.335C188.237 48.7717 189.082 48.2733 190.079 47.84C191.119 47.3633 192.224 46.9517 193.394 46.605C194.564 46.2583 195.777 45.9983 197.034 45.825C198.29 45.6083 199.547 45.5 200.804 45.5C202.884 45.5 204.53 45.9117 205.744 46.735C206.957 47.515 207.564 48.815 207.564 50.635C207.564 51.2417 207.477 51.8483 207.304 52.455C207.13 53.0183 206.914 53.5383 206.654 54.015C205.744 54.015 204.812 54.0583 203.859 54.145C202.905 54.2317 201.974 54.3617 201.064 54.535C200.154 54.7083 199.287 54.9033 198.464 55.12C197.684 55.2933 197.012 55.51 196.449 55.77L196.449 77.935ZM223.172 67.145C223.172 68.2717 223.519 69.0733 224.212 69.55C224.949 70.0267 225.967 70.265 227.267 70.265C227.917 70.265 228.589 70.2217 229.282 70.135C229.976 70.005 230.582 69.8533 231.102 69.68C231.492 70.1567 231.817 70.6983 232.077 71.305C232.381 71.8683 232.532 72.5617 232.532 73.385C232.532 75.0317 231.904 76.375 230.647 77.415C229.434 78.455 227.267 78.975 224.147 78.975C220.334 78.975 217.387 78.1083 215.307 76.375C213.271 74.6417 212.252 71.825 212.252 67.925L212.252 40.105C212.729 39.975 213.401 39.845 214.267 39.715C215.177 39.5417 216.131 39.455 217.127 39.455C219.034 39.455 220.507 39.8017 221.547 40.495C222.631 41.145 223.172 42.5533 223.172 44.72L223.172 48.88L231.687 48.88C231.947 49.3567 232.186 49.9633 232.402 50.7C232.662 51.3933 232.792 52.1733 232.792 53.04C232.792 54.5567 232.446 55.6617 231.752 56.355C231.102 57.005 230.214 57.33 229.087 57.33L223.172 57.33L223.172 67.145ZM254.472 79.04C251.915 79.04 249.532 78.6933 247.322 78C245.155 77.2633 243.248 76.18 241.602 74.75C239.998 73.32 238.72 71.5217 237.767 69.355C236.857 67.1883 236.402 64.6533 236.402 61.75C236.402 58.89 236.857 56.4417 237.767 54.405C238.72 52.325 239.955 50.635 241.472 49.335C242.988 47.9917 244.722 47.0167 246.672 46.41C248.622 45.76 250.615 45.435 252.652 45.435C254.948 45.435 257.028 45.7817 258.892 46.475C260.798 47.1683 262.423 48.1217 263.767 49.335C265.153 50.5483 266.215 52 266.952 53.69C267.732 55.38 268.122 57.2217 268.122 59.215C268.122 60.6883 267.71 61.815 266.887 62.595C266.063 63.375 264.915 63.8733 263.442 64.09L247.387 66.495C247.863 67.925 248.838 69.0083 250.312 69.745C251.785 70.4383 253.475 70.785 255.382 70.785C257.158 70.785 258.827 70.5683 260.387 70.135C261.99 69.6583 263.29 69.1167 264.287 68.51C264.98 68.9433 265.565 69.55 266.042 70.33C266.518 71.11 266.757 71.9333 266.757 72.8C266.757 74.75 265.847 76.2017 264.027 77.155C262.64 77.8917 261.08 78.39 259.347 78.65C257.613 78.91 255.988 79.04 254.472 79.04ZM252.652 53.495C251.612 53.495 250.702 53.6683 249.922 54.015C249.185 54.3617 248.578 54.8167 248.102 55.38C247.625 55.9 247.257 56.5067 246.997 57.2C246.78 57.85 246.65 58.5217 246.607 59.215L257.722 57.395C257.592 56.5283 257.115 55.6617 256.292 54.795C255.468 53.9283 254.255 53.495 252.652 53.495ZM284.491 77.935C284.057 78.065 283.364 78.195 282.411 78.325C281.501 78.455 280.547 78.52 279.551 78.52C278.597 78.52 277.731 78.455 276.951 78.325C276.214 78.195 275.586 77.935 275.066 77.545C274.546 77.155 274.134 76.635 273.831 75.985C273.571 75.2917 273.441 74.4033 273.441 73.32L273.441 53.82C273.441 52.8233 273.614 51.9783 273.961 51.285C274.351 50.5483 274.892 49.8983 275.586 49.335C276.279 48.7717 277.124 48.2733 278.121 47.84C279.161 47.3633 280.266 46.9517 281.436 46.605C282.606 46.2583 283.819 45.9983 285.076 45.825C286.332 45.6083 287.589 45.5 288.846 45.5C290.926 45.5 292.572 45.9117 293.786 46.735C294.999 47.515 295.606 48.815 295.606 50.635C295.606 51.2417 295.519 51.8483 295.346 52.455C295.172 53.0183 294.956 53.5383 294.696 54.015C293.786 54.015 292.854 54.0583 291.901 54.145C290.947 54.2317 290.016 54.3617 289.106 54.535C288.196 54.7083 287.329 54.9033 286.506 55.12C285.726 55.2933 285.054 55.51 284.491 55.77L284.491 77.935Z" fill="#D93A3A"/>
<path d="M55.5 45.1562C52.0697 45.1562 48.7165 46.1734 45.8643 48.0792C43.0122 49.985 40.7892 52.6937 39.4765 55.8628C38.1638 59.032 37.8203 62.5192 38.4895 65.8836C39.1587 69.248 40.8106 72.3383 43.2361 74.7639C45.6617 77.1895 48.7521 78.8413 52.1164 79.5105C55.4808 80.1797 58.968 79.8362 62.1372 78.5235C65.3063 77.2108 68.0151 74.9878 69.9208 72.1357C71.8266 69.2835 72.8438 65.9303 72.8438 62.5C72.8438 57.9002 71.0165 53.4887 67.7639 50.2361C64.5113 46.9835 60.0999 45.1562 55.5 45.1562ZM57.1303 71.01V71.935C57.1303 72.395 56.9476 72.8361 56.6223 73.1614C56.2971 73.4866 55.8559 73.6694 55.3959 73.6694C54.936 73.6694 54.4948 73.4866 54.1696 73.1614C53.8443 72.8361 53.6616 72.395 53.6616 71.935V70.9984C52.4678 70.8406 51.3009 70.5217 50.1928 70.0503C49.7519 69.8797 49.3837 69.5617 49.1508 69.1503C48.9178 68.739 48.8344 68.2597 48.9148 67.7938C48.9951 67.3279 49.2343 66.9043 49.5916 66.5948C49.949 66.2852 50.4024 66.109 50.875 66.0959C52.3284 66.598 53.8398 66.9127 55.3728 67.0325C57.8588 67.0325 57.8588 66.1653 57.8588 65.7953C57.8588 65.1709 56.1359 64.905 55.1416 64.6391C52.7019 64.0263 49.0134 63.0666 49.0134 59.2856C49.044 58.0101 49.5253 56.7866 50.3719 55.8321C51.2185 54.8775 52.3757 54.2536 53.6384 54.0709V53.065C53.6384 52.605 53.8212 52.1639 54.1464 51.8386C54.4717 51.5134 54.9128 51.3306 55.3728 51.3306C55.8328 51.3306 56.274 51.5134 56.5992 51.8386C56.9245 52.1639 57.1072 52.605 57.1072 53.065V53.9669C58.1373 54.0626 59.1513 54.288 60.125 54.6375C60.5682 54.8014 60.9405 55.1144 61.1781 55.5228C61.4157 55.9313 61.5038 56.4097 61.4272 56.8759C61.3506 57.3422 61.1142 57.7673 60.7585 58.0783C60.4027 58.3893 59.9498 58.5668 59.4775 58.5803C58.2772 58.2225 57.0395 58.0052 55.7891 57.9328C54.6328 57.9328 53.2338 58.2566 53.2338 59.1469C53.2338 59.7481 54.0663 60.0487 56.0666 60.5228C58.4484 61.1009 62.0559 61.9566 62.0559 65.9109C62.0906 68.5703 60.125 70.5128 57.1303 71.01Z" fill="#D93A3A"/>
</svg>
